<mxfile host="Electron" modified="2024-08-02T05:46:15.671Z" agent="Mozilla/5.0 (Windows NT 10.0; Win64; x64) AppleWebKit/537.36 (KHTML, like Gecko) draw.io/24.5.3 Chrome/124.0.6367.207 Electron/30.0.6 Safari/537.36" etag="c8OGjKN-kny1N_rdLGXr" version="24.5.3" type="device">
  <diagram name="Страница — 1" id="no4FJr2xxq9CkF5yL_Iq">
    <mxGraphModel dx="1833" dy="1061" grid="1" gridSize="10" guides="1" tooltips="1" connect="1" arrows="1" fold="1" page="1" pageScale="1" pageWidth="827" pageHeight="1169" math="0" shadow="0">
      <root>
        <mxCell id="0" />
        <mxCell id="1" parent="0" />
        <mxCell id="cEzP-tLh4rJKjAEhT77M-1" value="Playcanvas application" style="rounded=1;whiteSpace=wrap;html=1;" vertex="1" parent="1">
          <mxGeometry x="164" y="650" width="200" height="80" as="geometry" />
        </mxCell>
        <mxCell id="cEzP-tLh4rJKjAEhT77M-2" value="SPA frontend" style="rounded=1;whiteSpace=wrap;html=1;" vertex="1" parent="1">
          <mxGeometry x="164" y="490" width="200" height="80" as="geometry" />
        </mxCell>
        <mxCell id="cEzP-tLh4rJKjAEhT77M-3" value="Colyseus cluster" style="rounded=1;whiteSpace=wrap;html=1;" vertex="1" parent="1">
          <mxGeometry x="604" y="650" width="200" height="80" as="geometry" />
        </mxCell>
        <mxCell id="cEzP-tLh4rJKjAEhT77M-4" value="Metaverse backend (NestJs)" style="rounded=1;whiteSpace=wrap;html=1;" vertex="1" parent="1">
          <mxGeometry x="164" y="330" width="200" height="80" as="geometry" />
        </mxCell>
        <mxCell id="cEzP-tLh4rJKjAEhT77M-5" value="NextJs application" style="rounded=1;whiteSpace=wrap;html=1;" vertex="1" parent="1">
          <mxGeometry x="164" y="170" width="200" height="80" as="geometry" />
        </mxCell>
        <mxCell id="cEzP-tLh4rJKjAEhT77M-8" value="" style="shape=flexArrow;endArrow=classic;startArrow=classic;html=1;rounded=0;exitX=1;exitY=0.5;exitDx=0;exitDy=0;entryX=0;entryY=0.5;entryDx=0;entryDy=0;" edge="1" parent="1" source="cEzP-tLh4rJKjAEhT77M-1" target="cEzP-tLh4rJKjAEhT77M-3">
          <mxGeometry width="100" height="100" relative="1" as="geometry">
            <mxPoint x="474" y="400" as="sourcePoint" />
            <mxPoint x="574" y="300" as="targetPoint" />
          </mxGeometry>
        </mxCell>
        <mxCell id="cEzP-tLh4rJKjAEhT77M-9" value="" style="shape=flexArrow;endArrow=classic;startArrow=classic;html=1;rounded=0;exitX=0.5;exitY=0;exitDx=0;exitDy=0;entryX=0.5;entryY=1;entryDx=0;entryDy=0;" edge="1" parent="1" source="cEzP-tLh4rJKjAEhT77M-1" target="cEzP-tLh4rJKjAEhT77M-2">
          <mxGeometry width="100" height="100" relative="1" as="geometry">
            <mxPoint x="474" y="400" as="sourcePoint" />
            <mxPoint x="574" y="300" as="targetPoint" />
          </mxGeometry>
        </mxCell>
        <mxCell id="cEzP-tLh4rJKjAEhT77M-10" value="DB" style="shape=cylinder3;whiteSpace=wrap;html=1;boundedLbl=1;backgroundOutline=1;size=15;" vertex="1" parent="1">
          <mxGeometry x="24" y="330" width="60" height="80" as="geometry" />
        </mxCell>
        <mxCell id="cEzP-tLh4rJKjAEhT77M-12" value="" style="endArrow=classic;startArrow=classic;html=1;rounded=0;exitX=1;exitY=0;exitDx=0;exitDy=15;exitPerimeter=0;entryX=0;entryY=0.5;entryDx=0;entryDy=0;" edge="1" parent="1" source="cEzP-tLh4rJKjAEhT77M-10" target="cEzP-tLh4rJKjAEhT77M-5">
          <mxGeometry width="50" height="50" relative="1" as="geometry">
            <mxPoint x="494" y="170" as="sourcePoint" />
            <mxPoint x="544" y="120" as="targetPoint" />
          </mxGeometry>
        </mxCell>
        <mxCell id="cEzP-tLh4rJKjAEhT77M-13" value="" style="endArrow=classic;startArrow=classic;html=1;rounded=0;exitX=1;exitY=0.5;exitDx=0;exitDy=0;exitPerimeter=0;entryX=0;entryY=0.5;entryDx=0;entryDy=0;" edge="1" parent="1" source="cEzP-tLh4rJKjAEhT77M-10" target="cEzP-tLh4rJKjAEhT77M-4">
          <mxGeometry width="50" height="50" relative="1" as="geometry">
            <mxPoint x="494" y="170" as="sourcePoint" />
            <mxPoint x="544" y="120" as="targetPoint" />
          </mxGeometry>
        </mxCell>
        <mxCell id="cEzP-tLh4rJKjAEhT77M-14" value="" style="shape=flexArrow;endArrow=classic;startArrow=classic;html=1;rounded=0;exitX=0.5;exitY=0;exitDx=0;exitDy=0;entryX=0.5;entryY=1;entryDx=0;entryDy=0;" edge="1" parent="1" source="cEzP-tLh4rJKjAEhT77M-2" target="cEzP-tLh4rJKjAEhT77M-4">
          <mxGeometry width="100" height="100" relative="1" as="geometry">
            <mxPoint x="474" y="400" as="sourcePoint" />
            <mxPoint x="574" y="300" as="targetPoint" />
          </mxGeometry>
        </mxCell>
        <mxCell id="cEzP-tLh4rJKjAEhT77M-16" value="Websocket (socket.io 4+)" style="text;html=1;align=center;verticalAlign=middle;whiteSpace=wrap;rounded=0;" vertex="1" parent="1">
          <mxGeometry x="264" y="420" width="180" height="30" as="geometry" />
        </mxCell>
        <mxCell id="cEzP-tLh4rJKjAEhT77M-17" value="Http" style="text;html=1;align=center;verticalAlign=middle;whiteSpace=wrap;rounded=0;" vertex="1" parent="1">
          <mxGeometry x="264" y="450" width="180" height="30" as="geometry" />
        </mxCell>
        <mxCell id="cEzP-tLh4rJKjAEhT77M-18" value="Websocket" style="text;html=1;align=center;verticalAlign=middle;whiteSpace=wrap;rounded=0;" vertex="1" parent="1">
          <mxGeometry x="394" y="650" width="180" height="30" as="geometry" />
        </mxCell>
        <mxCell id="cEzP-tLh4rJKjAEhT77M-19" value="Playcanvas context" style="text;html=1;align=center;verticalAlign=middle;whiteSpace=wrap;rounded=0;" vertex="1" parent="1">
          <mxGeometry x="258" y="590" width="180" height="40" as="geometry" />
        </mxCell>
        <mxCell id="cEzP-tLh4rJKjAEhT77M-21" value="Admin panel" style="rounded=1;whiteSpace=wrap;html=1;" vertex="1" parent="1">
          <mxGeometry x="604" y="330" width="200" height="80" as="geometry" />
        </mxCell>
        <mxCell id="cEzP-tLh4rJKjAEhT77M-22" value="" style="shape=flexArrow;endArrow=classic;startArrow=classic;html=1;rounded=0;exitX=1;exitY=0.5;exitDx=0;exitDy=0;entryX=0;entryY=0.5;entryDx=0;entryDy=0;" edge="1" parent="1" source="cEzP-tLh4rJKjAEhT77M-4" target="cEzP-tLh4rJKjAEhT77M-21">
          <mxGeometry width="100" height="100" relative="1" as="geometry">
            <mxPoint x="474" y="400" as="sourcePoint" />
            <mxPoint x="574" y="300" as="targetPoint" />
          </mxGeometry>
        </mxCell>
        <mxCell id="cEzP-tLh4rJKjAEhT77M-24" value="" style="shape=flexArrow;endArrow=classic;startArrow=classic;html=1;rounded=0;exitX=0.5;exitY=0;exitDx=0;exitDy=0;entryX=0.5;entryY=1;entryDx=0;entryDy=0;" edge="1" parent="1" source="cEzP-tLh4rJKjAEhT77M-3" target="cEzP-tLh4rJKjAEhT77M-21">
          <mxGeometry width="100" height="100" relative="1" as="geometry">
            <mxPoint x="594" y="400" as="sourcePoint" />
            <mxPoint x="694" y="300" as="targetPoint" />
          </mxGeometry>
        </mxCell>
        <mxCell id="cEzP-tLh4rJKjAEhT77M-25" value="Http" style="text;html=1;align=center;verticalAlign=middle;whiteSpace=wrap;rounded=0;" vertex="1" parent="1">
          <mxGeometry x="720" y="515" width="67" height="30" as="geometry" />
        </mxCell>
        <mxCell id="cEzP-tLh4rJKjAEhT77M-27" value="Websocket (socket.io 4+)" style="text;html=1;align=center;verticalAlign=middle;whiteSpace=wrap;rounded=0;" vertex="1" parent="1">
          <mxGeometry x="394" y="330" width="180" height="30" as="geometry" />
        </mxCell>
        <mxCell id="cEzP-tLh4rJKjAEhT77M-28" value="Http" style="text;html=1;align=center;verticalAlign=middle;whiteSpace=wrap;rounded=0;" vertex="1" parent="1">
          <mxGeometry x="394" y="380" width="180" height="30" as="geometry" />
        </mxCell>
        <mxCell id="cEzP-tLh4rJKjAEhT77M-29" value="&lt;b style=&quot;font-size: 28px;&quot;&gt;&lt;font style=&quot;font-size: 28px;&quot;&gt;Generic metaverse&lt;/font&gt;&lt;/b&gt;" style="text;html=1;align=center;verticalAlign=middle;whiteSpace=wrap;rounded=0;fontSize=28;" vertex="1" parent="1">
          <mxGeometry x="240" y="80" width="400" height="40" as="geometry" />
        </mxCell>
      </root>
    </mxGraphModel>
  </diagram>
</mxfile>
